<mxfile host="app.diagrams.net" modified="2023-05-03T16:24:08.995Z" agent="Mozilla/5.0 (Macintosh; Intel Mac OS X 10_15_7) AppleWebKit/605.1.15 (KHTML, like Gecko) Version/16.4 Safari/605.1.15" etag="adVMAPrcbETMeiUMxZDG" version="21.2.7" type="device">
  <diagram id="VYSHJCvByvjmSlqachhI" name="Page-1">
    <mxGraphModel dx="1466" dy="954" grid="1" gridSize="10" guides="1" tooltips="1" connect="1" arrows="1" fold="1" page="1" pageScale="1" pageWidth="1169" pageHeight="827" math="0" shadow="0">
      <root>
        <mxCell id="0" />
        <mxCell id="1" parent="0" />
        <mxCell id="PCise7N675CxqmUOG3lq-9" value="hub service" style="rounded=0;whiteSpace=wrap;html=1;fontSize=10;fillColor=none;align=left;verticalAlign=top;labelPosition=center;verticalLabelPosition=bottom;dashed=1;dashPattern=1 1;" parent="1" vertex="1">
          <mxGeometry x="41.5" y="204" width="151.5" height="356" as="geometry" />
        </mxCell>
        <mxCell id="PCise7N675CxqmUOG3lq-14" value="jupyterlabgeoenv service" style="rounded=0;whiteSpace=wrap;html=1;fontSize=10;fillColor=none;align=left;verticalAlign=top;labelPosition=center;verticalLabelPosition=bottom;dashed=1;dashPattern=1 1;" parent="1" vertex="1">
          <mxGeometry x="839.25" y="204" width="160.75" height="356" as="geometry" />
        </mxCell>
        <mxCell id="KUYv-iGuDq_AOt4XBdgt-12" value="&lt;div style=&quot;text-align: left&quot;&gt;[...]_pip_overwrite_download&lt;br&gt;&lt;/div&gt;" style="shape=cylinder3;whiteSpace=wrap;html=1;boundedLbl=1;backgroundOutline=1;size=5.88232421875;fontSize=10;" parent="1" vertex="1">
          <mxGeometry x="854.62" y="520" width="130" height="30" as="geometry" />
        </mxCell>
        <mxCell id="PCise7N675CxqmUOG3lq-13" value="content service" style="rounded=0;whiteSpace=wrap;html=1;fontSize=10;fillColor=none;align=left;verticalAlign=top;labelPosition=center;verticalLabelPosition=bottom;dashed=1;dashPattern=1 1;" parent="1" vertex="1">
          <mxGeometry x="688" y="204" width="141" height="356" as="geometry" />
        </mxCell>
        <mxCell id="PCise7N675CxqmUOG3lq-12" value="geoserver service" style="rounded=0;whiteSpace=wrap;html=1;fontSize=10;fillColor=none;align=left;verticalAlign=top;labelPosition=center;verticalLabelPosition=bottom;dashed=1;dashPattern=1 1;" parent="1" vertex="1">
          <mxGeometry x="526.75" y="204" width="153.25" height="356" as="geometry" />
        </mxCell>
        <mxCell id="PCise7N675CxqmUOG3lq-11" value="pgadmin service" style="rounded=0;whiteSpace=wrap;html=1;fontSize=10;fillColor=none;align=left;verticalAlign=top;labelPosition=center;verticalLabelPosition=bottom;dashed=1;dashPattern=1 1;" parent="1" vertex="1">
          <mxGeometry x="362.75" y="204" width="157.25" height="356" as="geometry" />
        </mxCell>
        <mxCell id="PCise7N675CxqmUOG3lq-10" value="postgis service" style="rounded=0;whiteSpace=wrap;html=1;fontSize=10;fillColor=none;align=left;verticalAlign=top;labelPosition=center;verticalLabelPosition=bottom;dashed=1;dashPattern=1 1;" parent="1" vertex="1">
          <mxGeometry x="202.75" y="204" width="151.5" height="356" as="geometry" />
        </mxCell>
        <mxCell id="PCise7N675CxqmUOG3lq-15" value="Docker compose network" style="rounded=0;whiteSpace=wrap;html=1;fontSize=10;fillColor=none;align=center;verticalAlign=top;labelPosition=center;verticalLabelPosition=bottom;horizontal=1;rotation=-90;dashed=1;" parent="1" vertex="1">
          <mxGeometry x="449.25" y="-179.75" width="141.5" height="992" as="geometry" />
        </mxCell>
        <mxCell id="mdrCvq0ZYz5mqA8l1cCE-18" value="postgis-container" style="shape=cube;whiteSpace=wrap;boundedLbl=1;backgroundOutline=1;darkOpacity=0.05;darkOpacity2=0.1;size=10;align=left;html=1;verticalAlign=top;fontSize=10;" parent="1" vertex="1">
          <mxGeometry x="212.5" y="265" width="132" height="100" as="geometry" />
        </mxCell>
        <mxCell id="mdrCvq0ZYz5mqA8l1cCE-19" value="pgadmin-container" style="shape=cube;whiteSpace=wrap;boundedLbl=1;backgroundOutline=1;darkOpacity=0.05;darkOpacity2=0.1;size=10;align=left;html=1;verticalAlign=top;fontSize=10;" parent="1" vertex="1">
          <mxGeometry x="372.5" y="265" width="130" height="100" as="geometry" />
        </mxCell>
        <mxCell id="mdrCvq0ZYz5mqA8l1cCE-20" value="pgAdmin" style="rounded=1;whiteSpace=wrap;html=1;fontSize=10;" parent="1" vertex="1">
          <mxGeometry x="402.5" y="320" width="80" height="30" as="geometry" />
        </mxCell>
        <mxCell id="8" style="edgeStyle=none;rounded=0;html=1;entryX=0.5;entryY=0;entryDx=0;entryDy=0;entryPerimeter=0;endArrow=none;endFill=0;exitX=0;exitY=0;exitDx=70;exitDy=100;exitPerimeter=0;" parent="1" source="mdrCvq0ZYz5mqA8l1cCE-21" target="4" edge="1">
          <mxGeometry relative="1" as="geometry" />
        </mxCell>
        <mxCell id="mdrCvq0ZYz5mqA8l1cCE-21" value="geoserver-container" style="shape=cube;whiteSpace=wrap;boundedLbl=1;backgroundOutline=1;darkOpacity=0.05;darkOpacity2=0.1;size=10;align=left;html=1;verticalAlign=top;fontSize=10;" parent="1" vertex="1">
          <mxGeometry x="532.5" y="265" width="130" height="100" as="geometry" />
        </mxCell>
        <mxCell id="mdrCvq0ZYz5mqA8l1cCE-22" value="GeoServer" style="rounded=1;whiteSpace=wrap;html=1;fontSize=10;" parent="1" vertex="1">
          <mxGeometry x="562.5" y="320" width="80" height="30" as="geometry" />
        </mxCell>
        <mxCell id="mdrCvq0ZYz5mqA8l1cCE-23" value="PostGIS" style="rounded=1;whiteSpace=wrap;html=1;fontSize=10;" parent="1" vertex="1">
          <mxGeometry x="242.5" y="320" width="80" height="30" as="geometry" />
        </mxCell>
        <mxCell id="9" style="edgeStyle=none;rounded=0;html=1;entryX=0.5;entryY=0;entryDx=0;entryDy=0;entryPerimeter=0;endArrow=none;endFill=0;exitX=0;exitY=0;exitDx=70;exitDy=100;exitPerimeter=0;" parent="1" source="mdrCvq0ZYz5mqA8l1cCE-24" target="4" edge="1">
          <mxGeometry relative="1" as="geometry" />
        </mxCell>
        <mxCell id="mdrCvq0ZYz5mqA8l1cCE-24" value="jupyterlabgeoenv-container" style="shape=cube;whiteSpace=wrap;boundedLbl=1;backgroundOutline=1;darkOpacity=0.05;darkOpacity2=0.1;size=10;align=left;html=1;verticalAlign=top;fontSize=10;" parent="1" vertex="1">
          <mxGeometry x="850" y="265" width="130" height="100" as="geometry" />
        </mxCell>
        <mxCell id="mdrCvq0ZYz5mqA8l1cCE-25" value="JupyterLab" style="rounded=1;whiteSpace=wrap;html=1;fontSize=10;" parent="1" vertex="1">
          <mxGeometry x="880" y="320" width="80" height="30" as="geometry" />
        </mxCell>
        <mxCell id="mdrCvq0ZYz5mqA8l1cCE-26" value="hub-container" style="shape=cube;whiteSpace=wrap;boundedLbl=1;backgroundOutline=1;darkOpacity=0.05;darkOpacity2=0.1;size=10;align=left;html=1;verticalAlign=top;fontSize=10;" parent="1" vertex="1">
          <mxGeometry x="52.5" y="265" width="130" height="100" as="geometry" />
        </mxCell>
        <mxCell id="mdrCvq0ZYz5mqA8l1cCE-27" value="Flask" style="rounded=1;whiteSpace=wrap;html=1;fontSize=10;" parent="1" vertex="1">
          <mxGeometry x="82.5" y="320" width="80" height="30" as="geometry" />
        </mxCell>
        <mxCell id="mdrCvq0ZYz5mqA8l1cCE-73" style="edgeStyle=orthogonalEdgeStyle;rounded=0;orthogonalLoop=1;jettySize=auto;html=1;entryX=0;entryY=0;entryDx=70;entryDy=100;entryPerimeter=0;fontSize=10;startArrow=none;startFill=0;endArrow=none;endFill=0;" parent="1" source="mdrCvq0ZYz5mqA8l1cCE-30" target="mdrCvq0ZYz5mqA8l1cCE-24" edge="1">
          <mxGeometry relative="1" as="geometry" />
        </mxCell>
        <mxCell id="mdrCvq0ZYz5mqA8l1cCE-72" style="edgeStyle=orthogonalEdgeStyle;rounded=0;orthogonalLoop=1;jettySize=auto;html=1;entryX=0;entryY=0;entryDx=70;entryDy=100;entryPerimeter=0;fontSize=10;startArrow=none;startFill=0;endArrow=none;endFill=0;" parent="1" source="mdrCvq0ZYz5mqA8l1cCE-31" target="mdrCvq0ZYz5mqA8l1cCE-21" edge="1">
          <mxGeometry relative="1" as="geometry" />
        </mxCell>
        <mxCell id="mdrCvq0ZYz5mqA8l1cCE-31" value="geoserver_data" style="shape=cylinder3;whiteSpace=wrap;html=1;boundedLbl=1;backgroundOutline=1;size=5.88232421875;fontSize=10;" parent="1" vertex="1">
          <mxGeometry x="537.5" y="415" width="130" height="30" as="geometry" />
        </mxCell>
        <mxCell id="mdrCvq0ZYz5mqA8l1cCE-71" style="edgeStyle=orthogonalEdgeStyle;rounded=0;orthogonalLoop=1;jettySize=auto;html=1;entryX=0;entryY=0;entryDx=70;entryDy=100;entryPerimeter=0;fontSize=10;startArrow=none;startFill=0;endArrow=none;endFill=0;" parent="1" source="mdrCvq0ZYz5mqA8l1cCE-32" target="mdrCvq0ZYz5mqA8l1cCE-19" edge="1">
          <mxGeometry relative="1" as="geometry" />
        </mxCell>
        <mxCell id="mdrCvq0ZYz5mqA8l1cCE-32" value="pgadmin_data" style="shape=cylinder3;whiteSpace=wrap;html=1;boundedLbl=1;backgroundOutline=1;size=5.88232421875;fontSize=10;" parent="1" vertex="1">
          <mxGeometry x="377.5" y="415" width="130" height="30" as="geometry" />
        </mxCell>
        <mxCell id="mdrCvq0ZYz5mqA8l1cCE-70" style="edgeStyle=orthogonalEdgeStyle;rounded=0;orthogonalLoop=1;jettySize=auto;html=1;entryX=0;entryY=0;entryDx=71;entryDy=100;entryPerimeter=0;fontSize=10;startArrow=none;startFill=0;endArrow=none;endFill=0;" parent="1" source="mdrCvq0ZYz5mqA8l1cCE-33" target="mdrCvq0ZYz5mqA8l1cCE-18" edge="1">
          <mxGeometry relative="1" as="geometry" />
        </mxCell>
        <mxCell id="mdrCvq0ZYz5mqA8l1cCE-33" value="postgis_data" style="shape=cylinder3;whiteSpace=wrap;html=1;boundedLbl=1;backgroundOutline=1;size=5.88232421875;fontSize=10;" parent="1" vertex="1">
          <mxGeometry x="218.5" y="415" width="130" height="30" as="geometry" />
        </mxCell>
        <mxCell id="mdrCvq0ZYz5mqA8l1cCE-66" style="edgeStyle=orthogonalEdgeStyle;rounded=0;orthogonalLoop=1;jettySize=auto;html=1;entryX=0;entryY=0;entryDx=60;entryDy=0;entryPerimeter=0;fontSize=10;startArrow=none;startFill=0;endArrow=none;endFill=0;" parent="1" source="mdrCvq0ZYz5mqA8l1cCE-38" target="mdrCvq0ZYz5mqA8l1cCE-24" edge="1">
          <mxGeometry relative="1" as="geometry" />
        </mxCell>
        <mxCell id="mdrCvq0ZYz5mqA8l1cCE-38" value="127.0.0.1:8004" style="fontStyle=0;labelPosition=right;verticalLabelPosition=middle;align=left;verticalAlign=top;spacingLeft=2;fontSize=10;html=1;" parent="1" vertex="1">
          <mxGeometry x="896" y="225" width="27.5" height="30" as="geometry" />
        </mxCell>
        <mxCell id="mdrCvq0ZYz5mqA8l1cCE-65" style="edgeStyle=orthogonalEdgeStyle;rounded=0;orthogonalLoop=1;jettySize=auto;html=1;entryX=0;entryY=0;entryDx=60;entryDy=0;entryPerimeter=0;fontSize=10;startArrow=none;startFill=0;endArrow=none;endFill=0;" parent="1" source="mdrCvq0ZYz5mqA8l1cCE-51" target="mdrCvq0ZYz5mqA8l1cCE-21" edge="1">
          <mxGeometry relative="1" as="geometry" />
        </mxCell>
        <mxCell id="mdrCvq0ZYz5mqA8l1cCE-51" value="127.0.0.1:8003" style="fontStyle=0;labelPosition=right;verticalLabelPosition=middle;align=left;verticalAlign=top;spacingLeft=2;fontSize=10;html=1;" parent="1" vertex="1">
          <mxGeometry x="578.75" y="225" width="27.5" height="30" as="geometry" />
        </mxCell>
        <mxCell id="mdrCvq0ZYz5mqA8l1cCE-62" style="edgeStyle=orthogonalEdgeStyle;rounded=0;orthogonalLoop=1;jettySize=auto;html=1;entryX=0;entryY=0;entryDx=60;entryDy=0;entryPerimeter=0;fontSize=10;startArrow=none;startFill=0;endArrow=none;endFill=0;" parent="1" source="mdrCvq0ZYz5mqA8l1cCE-52" target="mdrCvq0ZYz5mqA8l1cCE-19" edge="1">
          <mxGeometry relative="1" as="geometry" />
        </mxCell>
        <mxCell id="mdrCvq0ZYz5mqA8l1cCE-52" value="127.0.0.1:8002" style="fontStyle=0;labelPosition=right;verticalLabelPosition=middle;align=left;verticalAlign=top;spacingLeft=2;fontSize=10;html=1;" parent="1" vertex="1">
          <mxGeometry x="419.75" y="225" width="27.5" height="30" as="geometry" />
        </mxCell>
        <mxCell id="mdrCvq0ZYz5mqA8l1cCE-68" style="edgeStyle=orthogonalEdgeStyle;rounded=0;orthogonalLoop=1;jettySize=auto;html=1;fontSize=10;startArrow=none;startFill=0;endArrow=none;endFill=0;" parent="1" source="mdrCvq0ZYz5mqA8l1cCE-67" edge="1">
          <mxGeometry relative="1" as="geometry">
            <mxPoint x="106" y="270" as="targetPoint" />
          </mxGeometry>
        </mxCell>
        <mxCell id="mdrCvq0ZYz5mqA8l1cCE-67" value="127.0.0.1:8000" style="fontStyle=0;labelPosition=right;verticalLabelPosition=middle;align=left;verticalAlign=top;spacingLeft=2;fontSize=10;html=1;" parent="1" vertex="1">
          <mxGeometry x="92.5" y="225" width="27.5" height="30" as="geometry" />
        </mxCell>
        <mxCell id="mdrCvq0ZYz5mqA8l1cCE-95" style="edgeStyle=orthogonalEdgeStyle;rounded=0;orthogonalLoop=1;jettySize=auto;html=1;entryX=0.5;entryY=0;entryDx=0;entryDy=0;fontSize=12;startArrow=none;startFill=0;endArrow=classic;endFill=1;" parent="1" source="mdrCvq0ZYz5mqA8l1cCE-83" target="mdrCvq0ZYz5mqA8l1cCE-52" edge="1">
          <mxGeometry relative="1" as="geometry">
            <Array as="points">
              <mxPoint x="293" y="185" />
              <mxPoint x="433" y="185" />
            </Array>
          </mxGeometry>
        </mxCell>
        <mxCell id="mdrCvq0ZYz5mqA8l1cCE-97" style="edgeStyle=orthogonalEdgeStyle;rounded=0;orthogonalLoop=1;jettySize=auto;html=1;fontSize=12;startArrow=none;startFill=0;endArrow=classic;endFill=1;" parent="1" source="mdrCvq0ZYz5mqA8l1cCE-83" target="mdrCvq0ZYz5mqA8l1cCE-67" edge="1">
          <mxGeometry relative="1" as="geometry">
            <Array as="points">
              <mxPoint x="293" y="185" />
              <mxPoint x="112" y="185" />
            </Array>
          </mxGeometry>
        </mxCell>
        <mxCell id="mdrCvq0ZYz5mqA8l1cCE-98" style="edgeStyle=orthogonalEdgeStyle;rounded=0;orthogonalLoop=1;jettySize=auto;html=1;entryX=0.5;entryY=0;entryDx=0;entryDy=0;fontSize=12;startArrow=none;startFill=0;endArrow=classic;endFill=1;" parent="1" source="mdrCvq0ZYz5mqA8l1cCE-83" target="mdrCvq0ZYz5mqA8l1cCE-51" edge="1">
          <mxGeometry relative="1" as="geometry">
            <Array as="points">
              <mxPoint x="293" y="185" />
              <mxPoint x="593" y="185" />
            </Array>
          </mxGeometry>
        </mxCell>
        <mxCell id="mdrCvq0ZYz5mqA8l1cCE-99" style="edgeStyle=orthogonalEdgeStyle;rounded=0;orthogonalLoop=1;jettySize=auto;html=1;entryX=0.5;entryY=0;entryDx=0;entryDy=0;fontSize=12;startArrow=none;startFill=0;endArrow=classic;endFill=1;" parent="1" source="mdrCvq0ZYz5mqA8l1cCE-83" target="mdrCvq0ZYz5mqA8l1cCE-38" edge="1">
          <mxGeometry relative="1" as="geometry">
            <Array as="points">
              <mxPoint x="293" y="185" />
              <mxPoint x="910" y="185" />
            </Array>
          </mxGeometry>
        </mxCell>
        <mxCell id="mdrCvq0ZYz5mqA8l1cCE-83" value="" style="strokeWidth=1;shadow=0;dashed=0;align=center;html=1;shape=mxgraph.mockup.containers.browserWindow;rSize=0;strokeColor=none;strokeColor2=#008cff;strokeColor3=#c4c4c4;mainText=,;recursiveResize=0;labelBackgroundColor=none;fontSize=10;fillColor=none;" parent="1" vertex="1">
          <mxGeometry x="162.5" y="40" width="261.25" height="110" as="geometry" />
        </mxCell>
        <mxCell id="mdrCvq0ZYz5mqA8l1cCE-85" value="&lt;font style=&quot;font-size: 12px;&quot;&gt;localhost:8000&lt;/font&gt;" style="strokeWidth=1;shadow=0;dashed=0;align=center;html=1;shape=mxgraph.mockup.containers.anchor;rSize=0;fontSize=12;fontColor=#666666;align=left;labelBackgroundColor=none;fillColor=none;" parent="mdrCvq0ZYz5mqA8l1cCE-83" vertex="1">
          <mxGeometry x="130" y="60" width="80" height="26" as="geometry" />
        </mxCell>
        <mxCell id="mdrCvq0ZYz5mqA8l1cCE-94" value="" style="edgeStyle=orthogonalEdgeStyle;rounded=0;orthogonalLoop=1;jettySize=auto;html=1;fontSize=12;startArrow=none;startFill=0;endArrow=classic;endFill=1;" parent="1" source="mdrCvq0ZYz5mqA8l1cCE-92" target="mdrCvq0ZYz5mqA8l1cCE-83" edge="1">
          <mxGeometry relative="1" as="geometry" />
        </mxCell>
        <mxCell id="mdrCvq0ZYz5mqA8l1cCE-92" value="User" style="shape=umlActor;verticalLabelPosition=bottom;verticalAlign=top;html=1;outlineConnect=0;labelBackgroundColor=none;fontSize=12;fillColor=none;" parent="1" vertex="1">
          <mxGeometry x="52.5" y="65" width="30" height="60" as="geometry" />
        </mxCell>
        <mxCell id="5" style="edgeStyle=none;html=1;entryX=0.5;entryY=0;entryDx=0;entryDy=0;entryPerimeter=0;endArrow=none;endFill=0;" parent="1" source="2" target="4" edge="1">
          <mxGeometry relative="1" as="geometry" />
        </mxCell>
        <mxCell id="2" value="content-container" style="shape=cube;whiteSpace=wrap;boundedLbl=1;backgroundOutline=1;darkOpacity=0.05;darkOpacity2=0.1;size=10;align=left;html=1;verticalAlign=top;fontSize=10;" parent="1" vertex="1">
          <mxGeometry x="693" y="265" width="130" height="100" as="geometry" />
        </mxCell>
        <mxCell id="4" value="content_data" style="shape=cylinder3;whiteSpace=wrap;html=1;boundedLbl=1;backgroundOutline=1;size=5.88232421875;fontSize=10;" parent="1" vertex="1">
          <mxGeometry x="694" y="415" width="130" height="30" as="geometry" />
        </mxCell>
        <mxCell id="KUYv-iGuDq_AOt4XBdgt-11" value="&lt;div style=&quot;text-align: left&quot;&gt;&lt;span&gt;[...]_settings_workspace&lt;/span&gt;&lt;/div&gt;" style="shape=cylinder3;whiteSpace=wrap;html=1;boundedLbl=1;backgroundOutline=1;size=5.88232421875;fontSize=10;" parent="1" vertex="1">
          <mxGeometry x="855" y="493" width="130" height="30" as="geometry" />
        </mxCell>
        <mxCell id="KUYv-iGuDq_AOt4XBdgt-10" value="&lt;div style=&quot;text-align: left&quot;&gt;&lt;span&gt;[...]_settings_user&lt;/span&gt;&lt;/div&gt;" style="shape=cylinder3;whiteSpace=wrap;html=1;boundedLbl=1;backgroundOutline=1;size=5.88232421875;fontSize=10;" parent="1" vertex="1">
          <mxGeometry x="855" y="467" width="130" height="30" as="geometry" />
        </mxCell>
        <mxCell id="KUYv-iGuDq_AOt4XBdgt-9" value="[...]_settings_application" style="shape=cylinder3;whiteSpace=wrap;html=1;boundedLbl=1;backgroundOutline=1;size=5.88232421875;fontSize=10;" parent="1" vertex="1">
          <mxGeometry x="855" y="441" width="130" height="30" as="geometry" />
        </mxCell>
        <mxCell id="mdrCvq0ZYz5mqA8l1cCE-30" value="&lt;span style=&quot;text-align: left&quot;&gt;jupyterlabgeoenv_&lt;/span&gt;data" style="shape=cylinder3;whiteSpace=wrap;html=1;boundedLbl=1;backgroundOutline=1;size=5.88232421875;fontSize=10;" parent="1" vertex="1">
          <mxGeometry x="855" y="415" width="130" height="30" as="geometry" />
        </mxCell>
      </root>
    </mxGraphModel>
  </diagram>
</mxfile>
